<mxfile host="app.diagrams.net" agent="Mozilla/5.0 (Windows NT 10.0; Win64; x64) AppleWebKit/537.36 (KHTML, like Gecko) Chrome/134.0.0.0 Safari/537.36 Edg/134.0.0.0" version="26.1.0">
  <diagram name="Page-1" id="97916047-d0de-89f5-080d-49f4d83e522f">
    <mxGraphModel dx="2357.5" dy="371" grid="1" gridSize="10" guides="1" tooltips="1" connect="1" arrows="1" fold="1" page="1" pageScale="1.5" pageWidth="1169" pageHeight="827" background="none" math="0" shadow="0">
      <root>
        <mxCell id="0" />
        <mxCell id="1" parent="0" />
        <object label="Start Authentication Process" id="cBdl4IC6WcojKAwTyjKY-55">
          <mxCell style="rounded=0;whiteSpace=wrap;html=1;fillColor=#F2CC8F;strokeColor=#E07A5F;labelBackgroundColor=none;fontColor=#393C56;" vertex="1" parent="1">
            <mxGeometry x="140" y="40" width="320" height="40" as="geometry" />
          </mxCell>
        </object>
        <mxCell id="cBdl4IC6WcojKAwTyjKY-56" value="User Enters Credentials" style="rounded=0;whiteSpace=wrap;html=1;fillColor=#F2CC8F;strokeColor=#E07A5F;labelBackgroundColor=none;fontColor=#393C56;" vertex="1" parent="1">
          <mxGeometry x="160" y="110" width="280" height="40" as="geometry" />
        </mxCell>
        <mxCell id="cBdl4IC6WcojKAwTyjKY-57" value="Check Credentials in Database" style="rounded=0;whiteSpace=wrap;html=1;fillColor=#F2CC8F;strokeColor=#E07A5F;labelBackgroundColor=none;fontColor=#393C56;" vertex="1" parent="1">
          <mxGeometry x="190" y="180" width="230" height="40" as="geometry" />
        </mxCell>
        <mxCell id="cBdl4IC6WcojKAwTyjKY-60" value="&lt;strong style=&quot;text-wrap-mode: wrap;&quot; data-end=&quot;418&quot; data-start=&quot;398&quot;&gt;Login Successful&lt;/strong&gt;&lt;span style=&quot;text-wrap-mode: wrap;&quot;&gt;&amp;nbsp;→ Redirect to&lt;/span&gt;" style="text;html=1;align=center;verticalAlign=middle;resizable=0;points=[];autosize=1;strokeColor=none;fillColor=none;labelBackgroundColor=none;fontColor=#393C56;" vertex="1" parent="1">
          <mxGeometry x="380" y="170" width="200" height="30" as="geometry" />
        </mxCell>
        <mxCell id="cBdl4IC6WcojKAwTyjKY-61" value="" style="endArrow=classic;html=1;rounded=0;fillColor=#F2CC8F;strokeColor=#E07A5F;labelBackgroundColor=none;fontColor=default;" edge="1" parent="1">
          <mxGeometry width="50" height="50" relative="1" as="geometry">
            <mxPoint x="420" y="205.5" as="sourcePoint" />
            <mxPoint x="410" y="260" as="targetPoint" />
            <Array as="points">
              <mxPoint x="470" y="206" />
              <mxPoint x="470" y="260" />
            </Array>
          </mxGeometry>
        </mxCell>
        <mxCell id="cBdl4IC6WcojKAwTyjKY-62" value="" style="endArrow=classic;html=1;rounded=0;exitX=0;exitY=0.5;exitDx=0;exitDy=0;entryX=0;entryY=0.5;entryDx=0;entryDy=0;fillColor=#F2CC8F;strokeColor=#E07A5F;labelBackgroundColor=none;fontColor=default;" edge="1" parent="1" source="cBdl4IC6WcojKAwTyjKY-57" target="cBdl4IC6WcojKAwTyjKY-56">
          <mxGeometry width="50" height="50" relative="1" as="geometry">
            <mxPoint x="170" y="201" as="sourcePoint" />
            <mxPoint x="100" y="254.5" as="targetPoint" />
            <Array as="points">
              <mxPoint x="160" y="200.5" />
              <mxPoint x="110" y="201" />
              <mxPoint x="110" y="130" />
            </Array>
          </mxGeometry>
        </mxCell>
        <mxCell id="cBdl4IC6WcojKAwTyjKY-63" value="&amp;nbsp;&lt;strong data-end=&quot;446&quot; data-start=&quot;433&quot;&gt;Dashboard&lt;/strong&gt;" style="rounded=0;whiteSpace=wrap;html=1;fillColor=#F2CC8F;strokeColor=#E07A5F;labelBackgroundColor=none;fontColor=#393C56;" vertex="1" parent="1">
          <mxGeometry x="220" y="250" width="190" height="40" as="geometry" />
        </mxCell>
        <mxCell id="cBdl4IC6WcojKAwTyjKY-64" value="&lt;strong data-end=&quot;489&quot; data-start=&quot;473&quot;&gt;Login Failed&lt;/strong&gt; →&amp;nbsp;&lt;div&gt;Ask User to&amp;nbsp;&lt;/div&gt;&lt;div&gt;&lt;strong data-end=&quot;528&quot; data-start=&quot;504&quot;&gt;Re-enter Credentials&lt;/strong&gt;&lt;/div&gt;" style="text;html=1;align=center;verticalAlign=middle;resizable=0;points=[];autosize=1;labelBackgroundColor=none;fontColor=#393C56;" vertex="1" parent="1">
          <mxGeometry x="-10" y="175" width="140" height="60" as="geometry" />
        </mxCell>
        <mxCell id="cBdl4IC6WcojKAwTyjKY-72" value="" style="edgeStyle=elbowEdgeStyle;elbow=vertical;strokeWidth=4;endArrow=block;endFill=1;fontStyle=1;strokeColor=#E07A5F;labelBackgroundColor=none;fontColor=default;" edge="1" parent="1">
          <mxGeometry x="62" y="165.5" width="100" height="100" as="geometry">
            <mxPoint x="299.5" y="80" as="sourcePoint" />
            <mxPoint x="299.5" y="110" as="targetPoint" />
            <Array as="points">
              <mxPoint x="299.5" y="104" />
            </Array>
          </mxGeometry>
        </mxCell>
        <mxCell id="cBdl4IC6WcojKAwTyjKY-73" value="" style="edgeStyle=elbowEdgeStyle;elbow=vertical;strokeWidth=4;endArrow=block;endFill=1;fontStyle=1;strokeColor=#E07A5F;labelBackgroundColor=none;fontColor=default;" edge="1" parent="1">
          <mxGeometry x="62" y="165.5" width="100" height="100" as="geometry">
            <mxPoint x="299.5" y="150" as="sourcePoint" />
            <mxPoint x="299.5" y="180" as="targetPoint" />
            <Array as="points">
              <mxPoint x="299.5" y="174" />
            </Array>
          </mxGeometry>
        </mxCell>
        <mxCell id="cBdl4IC6WcojKAwTyjKY-75" value="" style="edgeStyle=elbowEdgeStyle;elbow=vertical;strokeWidth=4;endArrow=block;endFill=1;fontStyle=1;strokeColor=#E07A5F;labelBackgroundColor=none;fontColor=default;" edge="1" parent="1">
          <mxGeometry x="62" y="165.5" width="100" height="100" as="geometry">
            <mxPoint x="304.5" y="220" as="sourcePoint" />
            <mxPoint x="304.5" y="250" as="targetPoint" />
            <Array as="points">
              <mxPoint x="304.5" y="244" />
            </Array>
          </mxGeometry>
        </mxCell>
      </root>
    </mxGraphModel>
  </diagram>
</mxfile>
